<svg width="64" height="64" viewBox="0 0 64 64" fill="none" xmlns="http://www.w3.org/2000/svg">
  <rect width="64" height="64" rx="16" fill="url(#doc_grad)"/>
  <!-- Document Base Sheet -->
  <path d="M18 13C18 11.8954 18.8954 11 20 11H38L48 21V51C48 52.1046 47.1046 53 46 53H20C18.8954 53 18 52.1046 18 51V13Z" fill="white" fill-opacity="0.95"/>
  <!-- Corner Fold -->
  <path d="M38 11V19C38 20.1046 38.8954 21 40 21H48L38 11Z" fill="#CBD5E1"/>
  <!-- Legal Lines -->
  <rect x="23" y="24" width="18" height="2.5" rx="1.25" fill="#3B82F6"/>
  <rect x="23" y="29.5" width="22" height="2" rx="1" fill="#94A3B8"/>
  <rect x="23" y="34.5" width="22" height="2" rx="1" fill="#94A3B8"/>
  <rect x="23" y="39.5" width="15" height="2" rx="1" fill="#94A3B8"/>
  <!-- Golden Seal Stamp Badge -->
  <circle cx="39" cy="43" r="6" fill="#F59E0B"/>
  <path d="M36.5 43L38.2 44.7L41.8 41.1" stroke="white" stroke-width="1.5" stroke-linecap="round" stroke-linejoin="round"/>
  <!-- Ribbon -->
  <path d="M37 48L39 46.5L41 48V51L39 49.5L37 51V48Z" fill="#D97706"/>
  <defs>
    <linearGradient id="doc_grad" x1="0" y1="0" x2="64" y2="64" gradientUnits="userSpaceOnUse">
      <stop stop-color="#1E3A8A"/>
      <stop offset="0.5" stop-color="#2563EB"/>
      <stop offset="1" stop-color="#3B82F6"/>
    </linearGradient>
  </defs>
</svg>
